<svg xmlns="http://www.w3.org/2000/svg" viewBox="0 0 200 230">
  <rect width="200" height="230" fill="#f0f0f0"/>
  <!-- Hair outer shape -->
  <path d="M52,92 Q44,28 100,22 Q156,28 148,92 Q161,87 164,103 Q167,122 153,130 Q148,162 130,174 Q116,182 100,182 Q84,182 70,174 Q52,162 47,130 Q33,122 36,103 Q39,87 52,92Z" fill="#111"/>
  <!-- Left hair draping down -->
  <path d="M52,92 Q36,115 39,155 Q43,172 50,180 Q57,172 59,162 Q50,138 51,112Z" fill="#111"/>
  <!-- Right hair draping down -->
  <path d="M148,92 Q164,115 161,155 Q157,172 150,180 Q143,172 141,162 Q150,138 149,112Z" fill="#111"/>
  <!-- Face (light cutout) -->
  <ellipse cx="100" cy="110" rx="46" ry="52" fill="#f0f0f0"/>
  <!-- Neck -->
  <path d="M88,172 Q88,186 100,188 Q112,186 112,172 Q106,170 100,170 Q94,170 88,172Z" fill="#111"/>
  <!-- Shoulders / body -->
  <path d="M5,230 Q10,184 52,172 Q74,164 100,164 Q126,164 148,172 Q190,184 195,230Z" fill="#111"/>
</svg>
